<?xml version="1.0" encoding="utf-8"?>
<!-- Generator: Adobe Illustrator 16.0.0, SVG Export Plug-In . SVG Version: 6.00 Build 0)  -->
<!DOCTYPE svg PUBLIC "-//W3C//DTD SVG 1.1//EN" "http://www.w3.org/Graphics/SVG/1.1/DTD/svg11.dtd">
<svg version="1.1" id="Capa_1" xmlns="http://www.w3.org/2000/svg" xmlns:xlink="http://www.w3.org/1999/xlink" x="0px" y="0px"
	 width="500px" height="500px" viewBox="0 0 500 500" enable-background="new 0 0 500 500" xml:space="preserve">
<symbol  id="Casa" viewBox="-294 -262.602 588 525.204">
	<g>
		<polygon fill="#B09E80" points="-165,-250 -219,-250 -219,-48.052 -165,8.329 		"/>
		<g>
			<path fill="#B09E80" d="M-165.123-244.808c-18.067,0-36.134,0-54.201,0c1.667-1.667,3.333-3.333,5-5c0,49.222,0,98.443,0,147.665
				c0,18.03,0,36.061,0,54.091c-0.488-1.179-0.976-2.357-1.464-3.536C-197.721-32.793-179.654-14-161.587,4.793
				c-2.845,1.179-5.69,2.357-8.536,3.536c0-45.018,0-90.036,0-135.054c0-41.027,0-82.055,0-123.083c0-6.449,10-6.449,10,0
				c0,45.018,0,90.036,0,135.054c0,41.027,0,82.055,0,123.083c0,4.297-5.487,6.707-8.536,3.536
				c-16.934-17.615-33.868-35.23-50.802-52.845c-1.887-1.963-4.863-4.22-4.863-7.176c0-1.695,0-3.391,0-5.086
				c0-9.601,0-19.202,0-28.802c0-54.722,0-109.444,0-164.166c0-1.199,0-2.398,0-3.597c0-2.726,2.274-5,5-5
				c18.067,0,36.134,0,54.201,0C-158.674-254.808-158.674-244.808-165.123-244.808z"/>
		</g>
	</g>
	<g>
		<polygon fill="#B09E80" points="222,-200 -220,-200 -220,-258 222,-258 		"/>
		<g>
			<path fill="#B09E80" d="M222.085-195.431c-32.116,0-64.233,0-96.349,0c-64.011,0-128.021,0-192.032,0
				c-47.396,0-94.793,0-142.189,0c-3.736,0-7.473,0-11.209,0c-2.726,0-5-2.274-5-5c0-19.057,0-38.114,0-57.171c0-2.726,2.274-5,5-5
				c32.116,0,64.233,0,96.349,0c64.011,0,128.021,0,192.032,0c47.396,0,94.793,0,142.189,0c3.736,0,7.473,0,11.209,0
				c2.726,0,5,2.274,5,5c0,19.057,0,38.114,0,57.171c0,6.449-10,6.449-10,0c0-19.057,0-38.114,0-57.171c1.667,1.667,3.333,3.333,5,5
				c-32.116,0-64.233,0-96.349,0c-64.011,0-128.021,0-192.032,0c-47.396,0-94.793,0-142.189,0c-3.736,0-7.473,0-11.209,0
				c1.667-1.667,3.333-3.333,5-5c0,19.057,0,38.114,0,57.171c-1.667-1.667-3.333-3.333-5-5c32.116,0,64.233,0,96.349,0
				c64.011,0,128.021,0,192.032,0c47.396,0,94.793,0,142.189,0c3.736,0,7.473,0,11.209,0
				C228.534-205.431,228.534-195.431,222.085-195.431z"/>
		</g>
	</g>
	<g>
		<polygon fill="#B09E80" points="168,-255 223,-255 223,-53.253 168,3.13 		"/>
		<g>
			<path fill="#B09E80" d="M168.477-260.003c18.068,0,36.136,0,54.204,0c2.726,0,5,2.274,5,5c0,49.22,0,98.44,0,147.66
				c0,18.01,0,36.021,0,54.031c0,3.016-3.307,5.511-5.228,7.509c-4.408,4.586-8.817,9.171-13.226,13.757
				c-10.467,10.888-20.934,21.775-31.4,32.663c-1.938,2.016-3.876,4.032-5.814,6.048c-3.048,3.171-8.536,0.762-8.536-3.536
				c0-45.018,0-90.035,0-135.052c0-41.027,0-82.054,0-123.081c0-6.449,10-6.449,10,0c0,45.018,0,90.035,0,135.052
				c0,41.027,0,82.054,0,123.081c-2.845-1.179-5.69-2.357-8.536-3.536c18.068-18.794,36.136-37.588,54.204-56.383
				c-0.488,1.179-0.976,2.357-1.464,3.536c0-49.22,0-98.44,0-147.66c0-18.03,0-36.06,0-54.09c1.667,1.667,3.333,3.333,5,5
				c-18.068,0-36.136,0-54.204,0C162.028-250.003,162.028-260.003,168.477-260.003z"/>
		</g>
	</g>
	<g>
		<polygon fill="#B09E80" points="-247.995,-17.922 34.803,207.956 -0.875,252.623 -283.677,26.734 		"/>
		<g>
			<path fill="#B09E80" d="M-240.923-24.993c28.944,23.119,57.889,46.238,86.833,69.356
				c49.151,39.259,98.303,78.518,147.455,117.776c16.169,12.916,32.339,25.831,48.509,38.746c4.59,3.667,3.092,10.271,0,14.143
				c-11.893,14.889-23.786,29.778-35.678,44.667c-3.667,4.59-10.271,3.092-14.143,0c-28.945-23.12-57.89-46.24-86.834-69.36
				c-49.152-39.261-98.305-78.521-147.457-117.782c-16.17-12.916-32.34-25.832-48.51-38.747c-4.59-3.667-3.093-10.272,0-14.143
				c11.895-14.885,23.788-29.771,35.683-44.656C-251.657-29.258-244.456-28.525-240.923-24.993c4.172,4.173,3.399,9.888,0,14.143
				c-11.894,14.885-23.789,29.771-35.682,44.656c0-4.714,0-9.428,0-14.143c28.945,23.12,57.89,46.24,86.834,69.36
				c49.152,39.261,98.305,78.521,147.457,117.782c16.17,12.916,32.34,25.832,48.51,38.747c-4.714,0-9.428,0-14.143,0
				c11.893-14.889,23.786-29.778,35.678-44.667c0,4.714,0,9.428,0,14.143c-28.944-23.119-57.889-46.238-86.833-69.356
				c-49.151-39.259-98.303-78.518-147.455-117.776c-16.169-12.916-32.339-25.831-48.509-38.746c-4.266-3.407-3.531-10.611,0-14.143
				C-250.893-29.166-245.178-28.392-240.923-24.993z"/>
		</g>
	</g>
	<g>
		<polygon fill="#B09E80" points="-170,249 -170,97 -113,97 -113,249 		"/>
		<g>
			<path fill="#B09E80" d="M-179.919,249.449c0-48.563,0-97.125,0-145.687c0-2.238,0-4.476,0-6.713c0-5.451,4.549-10,10-10
				c19.058,0,38.115,0,57.173,0c5.451,0,10,4.549,10,10c0,48.563,0,97.125,0,145.687c0,2.238,0,4.476,0,6.713
				c0,5.451-4.549,10-10,10c-19.058,0-38.115,0-57.173,0c-12.897,0-12.897-20,0-20c19.058,0,38.115,0,57.173,0
				c-3.333,3.333-6.667,6.667-10,10c0-48.563,0-97.125,0-145.687c0-2.238,0-4.476,0-6.713c3.333,3.333,6.667,6.667,10,10
				c-19.058,0-38.115,0-57.173,0c3.333-3.333,6.667-6.667,10-10c0,48.563,0,97.125,0,145.687c0,2.238,0,4.476,0,6.713
				C-159.919,262.347-179.919,262.347-179.919,249.449z"/>
		</g>
	</g>
	<g>
		<polygon fill="#B09E80" points="247.993,-17.922 -34.805,207.956 0.872,252.623 283.676,26.734 		"/>
		<g>
			<path fill="#B09E80" d="M255.064-10.851c-28.945,23.119-57.889,46.237-86.834,69.356
				c-49.151,39.259-98.303,78.518-147.455,117.776c-16.17,12.915-32.34,25.83-48.509,38.746c0-4.714,0-9.428,0-14.143
				c11.892,14.889,23.784,29.778,35.677,44.667c-4.714,0-9.428,0-14.143,0c28.945-23.12,57.891-46.24,86.836-69.359
				c49.152-39.261,98.305-78.521,147.458-117.782c16.17-12.916,32.34-25.832,48.51-38.748c0,4.714,0,9.428,0,14.143
				C264.71,18.92,252.816,4.035,240.922-10.851c-3.399-4.254-4.172-9.97,0-14.143c3.532-3.532,10.734-4.265,14.143,0
				c11.894,14.885,23.788,29.771,35.683,44.656c3.092,3.871,4.59,10.476,0,14.143c-28.945,23.12-57.891,46.24-86.836,69.359
				c-49.152,39.261-98.305,78.521-147.458,117.782c-16.17,12.916-32.34,25.832-48.51,38.748c-3.871,3.092-10.476,4.591-14.143,0
				c-11.892-14.889-23.784-29.778-35.677-44.667c-3.092-3.871-4.59-10.476,0-14.143c28.945-23.119,57.889-46.237,86.834-69.356
				C94.109,92.27,143.261,53.011,192.413,13.752c16.17-12.915,32.34-25.83,48.509-38.746c4.255-3.398,9.969-4.173,14.143,0
				C258.596-21.461,259.33-14.258,255.064-10.851z"/>
		</g>
	</g>
	<polygon display="none" fill="none" points="-294,262 294,262 294,-262 -294,-262 	"/>
</symbol>
<use xlink:href="#Casa"  width="588" height="525.204" id="XMLID_1_" x="-294" y="-262.602" transform="matrix(0.8367 0 0 -0.8367 249.9941 250)" overflow="visible"/>
</svg>
